<svg width="155" height="22" viewBox="0 0 155 22" fill="none" xmlns="http://www.w3.org/2000/svg">
<path d="M27.8438 4.90909H32.267L35.3097 12.3239H35.4631L38.5057 4.90909H42.929V18H39.4517V10.4318H39.3494L36.4347 17.8977H34.3381L31.4233 10.3807H31.321V18H27.8438V4.90909ZM51.5873 4.90909V18H48.0333V4.90909H51.5873ZM56.6916 18V4.90909H60.2455V15.1364H65.5382V18H56.6916ZM70.3948 18V4.90909H73.9487V10.2017H74.1277L78.0652 4.90909H82.2073L77.784 10.7386L82.3095 18H78.0652L75.1249 13.0909L73.9487 14.625V18H70.3948ZM86.145 4.90909H90.1081L92.6649 10.2273H92.7672L95.324 4.90909H99.2871L94.4802 13.8835V18H90.9518V13.8835L86.145 4.90909ZM107.189 18L103.329 4.90909H107.292L109.082 12.9631H109.184L111.306 4.90909H114.425L116.547 12.9886H116.65L118.439 4.90909H122.403L118.542 18H115.141L112.917 10.6875H112.814L110.59 18H107.189ZM128.844 18H125.009L129.33 4.90909H134.188L138.509 18H134.674L131.81 8.5142H131.708L128.844 18ZM128.128 12.8352H135.339V15.4943H128.128V12.8352ZM141.317 4.90909H145.28L147.837 10.2273H147.939L150.496 4.90909H154.459L149.652 13.8835V18H146.124V13.8835L141.317 4.90909Z" fill="#133488"/>
<path d="M5.7931 19L6.23448 14.1111L2.2069 16.9444L0 13.0556L4.41379 11L0 8.94444L2.2069 5.05556L6.23448 7.88889L5.7931 3H10.2069L9.76552 7.88889L13.7931 5.05556L16 8.94444L11.5862 11L16 13.0556L13.7931 16.9444L9.76552 14.1111L10.2069 19H5.7931Z" fill="#FF9078"/>
</svg>
