<svg width="268" height="191" viewBox="0 0 268 191" fill="none" xmlns="http://www.w3.org/2000/svg">
<path d="M41.5 7.72727H49.3636L54.7727 20.9091H55.0455L60.4545 7.72727H68.3182V31H62.1364V17.5455H61.9545L56.7727 30.8182H53.0455L47.8636 17.4545H47.6818V31H41.5V7.72727ZM83.7107 7.72727V31H77.3925V7.72727H83.7107ZM92.785 31V7.72727H99.1032V25.9091H108.512V31H92.785ZM117.146 31V7.72727H123.464V17.1364H123.783L130.783 7.72727H138.146L130.283 18.0909L138.328 31H130.783L125.555 22.2727L123.464 25V31H117.146ZM145.147 7.72727H152.192L156.738 17.1818H156.919L161.465 7.72727H168.51L159.965 23.6818V31H153.692V23.6818L145.147 7.72727ZM182.559 31L175.695 7.72727H182.741L185.923 22.0455H186.105L189.877 7.72727H195.423L199.195 22.0909H199.377L202.559 7.72727H209.605L202.741 31H196.695L192.741 18H192.559L188.605 31H182.559ZM221.057 31H214.239L221.92 7.72727H230.557L238.239 31H231.42L226.329 14.1364H226.148L221.057 31ZM219.784 21.8182H232.602V26.5455H219.784V21.8182ZM243.23 7.72727H250.276L254.821 17.1818H255.003L259.549 7.72727H266.594L258.049 23.6818V31H251.776V23.6818L243.23 7.72727Z" fill="#133488"/>
<path d="M9.05172 32L9.74138 24.3611L3.44828 28.7882L0 22.7118L6.89655 19.5L0 16.2882L3.44828 10.2118L9.74138 14.6389L9.05172 7H15.9483L15.2586 14.6389L21.5517 10.2118L25 16.2882L18.1035 19.5L25 22.7118L21.5517 28.7882L15.2586 24.3611L15.9483 32H9.05172Z" fill="#FF9078"/>
<ellipse cx="133.976" cy="185.147" rx="29.6857" ry="5.37615" fill="#D9D9D9"/>
<path d="M126.768 128.208C126.768 128.208 138.749 180.953 124.458 184.966C121.796 185.714 117.528 184.966 117.528 184.966" stroke="black" stroke-width="3" stroke-linecap="round"/>
<path d="M143.473 128.208C143.473 128.208 131.491 180.953 145.782 184.966C148.444 185.714 152.712 184.966 152.712 184.966" stroke="black" stroke-width="3" stroke-linecap="round"/>
<path d="M118.39 125.9C110.568 126.552 92.938 124.776 85 112.451" stroke="black" stroke-width="3" stroke-linecap="round"/>
<path d="M182.29 121.334C175.514 125.298 158.844 131.302 146.365 123.608" stroke="black" stroke-width="3" stroke-linecap="round"/>
<path d="M124.143 161.071L126.297 137.216L106.644 151.041L95.8757 132.065L117.413 122.036L95.8757 112.006L106.644 93.03L126.297 106.855L124.143 83H145.68L143.526 106.855L163.178 93.03L173.947 112.006L152.41 122.036L173.947 132.065L163.178 151.041L143.526 137.216L145.68 161.071H124.143Z" fill="#FF9078"/>
<ellipse cx="1.63622" cy="2.33746" rx="1.63622" ry="2.33746" transform="matrix(1 0 0 -1 137.015 116.191)" fill="black"/>
<ellipse cx="1.63622" cy="2.33746" rx="1.63622" ry="2.33746" transform="matrix(1 0 0 -1 127.198 116.191)" fill="black"/>
</svg>
