<svg width="111" height="118" viewBox="0 0 111 118" fill="none" xmlns="http://www.w3.org/2000/svg">
<ellipse cx="55.7014" cy="112.001" rx="32.5498" ry="5.89484" fill="#D9D9D9"/>
<path d="M47.7975 49.5693C47.7975 49.5693 60.9346 107.403 45.2648 111.804C42.3464 112.623 37.6666 111.804 37.6666 111.804" stroke="black" stroke-width="3" stroke-linecap="round"/>
<path d="M66.114 49.5693C66.114 49.5693 52.9769 107.403 68.6467 111.804C71.5651 112.623 76.2449 111.804 76.2449 111.804" stroke="black" stroke-width="3" stroke-linecap="round"/>
<path d="M38.6117 47.039C30.0344 47.7545 10.7038 45.8069 2 32.293" stroke="black" stroke-width="3" stroke-linecap="round"/>
<path d="M108.676 42.0324C101.247 46.3787 82.968 52.9622 69.2852 44.5264" stroke="black" stroke-width="3" stroke-linecap="round"/>
<path d="M44.9192 85.6033L47.2807 59.4467L25.7323 74.6057L13.9249 53.7993L37.5396 42.8016L13.9249 31.804L25.7323 10.9976L47.2807 26.1566L44.9192 0H68.5339L66.1725 26.1566L87.7209 10.9976L99.5282 31.804L75.9135 42.8016L99.5282 53.7993L87.7209 74.6057L66.1725 59.4467L68.5339 85.6033H44.9192Z" fill="#FF9078"/>
<ellipse cx="1.79408" cy="2.56297" rx="1.79408" ry="2.56297" transform="matrix(1 0 0 -1 59.0333 36.3945)" fill="black"/>
<ellipse cx="1.79408" cy="2.56297" rx="1.79408" ry="2.56297" transform="matrix(1 0 0 -1 48.2688 36.3945)" fill="black"/>
<path d="M51.8569 38.4443C52.025 38.9569 52.9258 39.9821 55.1846 39.9821C57.4434 39.9821 58.0081 38.9569 58.0081 38.4443" stroke="black" stroke-width="2" stroke-linecap="round"/>
<path d="M56.9829 37.9316C57.5732 37.9601 58.8096 38.3075 59.0333 39.4694" stroke="black" stroke-width="2" stroke-linecap="round"/>
</svg>
